<?xml version="1.0" encoding="UTF-8" standalone="no"?>
<!-- Created with Inkscape (http://www.inkscape.org/) -->

<svg xmlns:dc="http://purl.org/dc/elements/1.1/" xmlns:cc="http://creativecommons.org/ns#" xmlns:rdf="http://www.w3.org/1999/02/22-rdf-syntax-ns#" xmlns:svg="http://www.w3.org/2000/svg" xmlns="http://www.w3.org/2000/svg" xmlns:sodipodi="http://sodipodi.sourceforge.net/DTD/sodipodi-0.dtd" xmlns:inkscape="http://www.inkscape.org/namespaces/inkscape" width="2119.3376" height="744.09448" id="svg5467" version="1.1" inkscape:version="0.48.1 " sodipodi:docname="Nouveau document 4">
  <defs id="defs5469">
    <clipPath clipPathUnits="userSpaceOnUse" id="clipPath3007">
      <path inkscape:connector-curvature="0" d="M 464.118,717.953 576,717.953 576,756 464.118,756 464.118,717.953 z" id="path3009" />
    </clipPath>
  </defs>
  <sodipodi:namedview id="base" pagecolor="#ffffff" bordercolor="#666666" borderopacity="1.0" inkscape:pageopacity="0.0" inkscape:pageshadow="2" inkscape:zoom="0.70683594" inkscape:cx="654.07134" inkscape:cy="-267.07518" inkscape:document-units="px" inkscape:current-layer="layer1" showgrid="false" units="mm" fit-margin-top="5" fit-margin-left="5" fit-margin-right="5" fit-margin-bottom="5" inkscape:window-width="1366" inkscape:window-height="716" inkscape:window-x="-8" inkscape:window-y="-8" inkscape:window-maximized="1" />
  <metadata id="metadata5472">
    <rdf:RDF>
      <cc:Work rdf:about="">
        <dc:format>image/svg+xml</dc:format>
        <dc:type rdf:resource="http://purl.org/dc/dcmitype/StillImage" />
        <dc:title></dc:title>
      </cc:Work>
    </rdf:RDF>
  </metadata>
  <g inkscape:label="Calque 1" inkscape:groupmode="layer" id="layer1" transform="translate(279.07134,478.80747)">
    <g transform="matrix(18.625947,0,0,-18.625947,-8905.9958,13620.125)" id="g3003">
      <g id="g3005" clip-path="url(#clipPath3007)">
        <g id="g3011" transform="translate(464.1182,737.4505)">
          <path inkscape:connector-curvature="0" d="M 0,0 C 0.001,10.245 8.304,18.548 18.549,18.55 28.794,18.548 37.098,10.245 37.099,0 37.098,-10.245 28.794,-18.548 18.549,-18.549 8.304,-18.548 0.001,-10.245 0,0" style="fill:white;fill-opacity:1;fill-rule:nonzero;stroke:none" id="path3013" />
        </g>
        <g id="g3015" transform="translate(465.6932,737.4505)">
          <path inkscape:connector-curvature="0" d="M 0,0 C 0,9.375 7.599,16.974 16.974,16.974 26.349,16.974 33.949,9.375 33.949,0 33.949,-9.375 26.349,-16.975 16.974,-16.975 7.599,-16.975 0,-9.375 0,0" style="fill:#f46f1b;fill-opacity:1;fill-rule:nonzero;stroke:none" id="path3017" />
        </g>
        <g id="g3019" transform="translate(482.6837,741.8364)">
          <path inkscape:connector-curvature="0" d="M 0,0 C -0.005,0 -0.011,0 -0.016,0 -0.022,0 -0.027,0 -0.033,0 -1.083,0 -1.979,-0.707 -2.182,-1.672 -2.21,-1.806 -2.225,-1.945 -2.225,-2.087 -2.225,-5.231 -1.024,-12.802 -0.994,-12.988 L -0.994,-12.993 0.961,-12.993 0.961,-12.988 C 0.991,-12.802 2.192,-5.231 2.192,-2.087 2.192,-1.945 2.177,-1.806 2.149,-1.672 1.946,-0.707 1.05,0 0,0 M -0.016,0.825 C 1.229,0.825 2.24,1.835 2.24,3.081 2.24,4.327 1.229,5.337 -0.016,5.337 -1.262,5.337 -2.272,4.327 -2.272,3.081 -2.272,1.835 -1.262,0.825 -0.016,0.825" style="fill:white;fill-opacity:1;fill-rule:nonzero;stroke:none" id="path3021" />
        </g>
        <g id="g3023" transform="translate(475.808,739.8877)">
          <path inkscape:connector-curvature="0" d="M 0,0 C -0.005,0 -0.009,0 -0.014,0 -0.018,0 -0.023,0 -0.028,0 -0.92,0 -1.682,-0.601 -1.854,-1.421 -1.878,-1.535 -1.891,-1.653 -1.891,-1.774 -1.891,-4.446 -0.87,-10.882 -0.845,-11.04 L -0.845,-11.044 0.817,-11.044 0.817,-11.04 C 0.842,-10.882 1.863,-4.446 1.863,-1.774 1.863,-1.653 1.85,-1.535 1.827,-1.421 1.654,-0.601 0.893,0 0,0 M -0.014,0.701 C 1.045,0.701 1.904,1.559 1.904,2.619 1.904,3.678 1.045,4.536 -0.014,4.536 -1.073,4.536 -1.931,3.678 -1.931,2.619 -1.931,1.559 -1.073,0.701 -0.014,0.701" style="fill:white;fill-opacity:1;fill-rule:nonzero;stroke:none" id="path3025" />
        </g>
        <g id="g3027" transform="translate(487.7138,738.4663)">
          <path inkscape:connector-curvature="0" d="M 0,0 C -0.024,-0.114 -0.037,-0.232 -0.037,-0.353 -0.037,-3.025 0.984,-9.46 1.009,-9.619 L 1.01,-9.622 2.671,-9.622 2.671,-9.619 C 2.697,-9.46 3.717,-3.025 3.717,-0.353 3.717,-0.232 3.705,-0.114 3.681,0 3.508,0.82 2.747,1.421 1.854,1.421 1.85,1.421 1.845,1.421 1.84,1.421 1.836,1.421 1.831,1.421 1.827,1.421 0.934,1.421 0.172,0.82 0,0 M 3.758,4.04 C 3.758,5.099 2.9,5.958 1.84,5.958 0.781,5.958 -0.077,5.099 -0.077,4.04 -0.077,2.981 0.781,2.122 1.84,2.122 2.9,2.122 3.758,2.981 3.758,4.04" style="fill:white;fill-opacity:1;fill-rule:nonzero;stroke:none" id="path3029" />
        </g>
        <g id="g3031" transform="translate(569.9302,724.7594)">
          <path inkscape:connector-curvature="0" d="M 0,0 -0.383,0 -0.383,0.214 0.633,0.214 0.633,0 0.239,0 0.239,-2.353 0,-2.353 0,0 z" style="fill:#4a463d;fill-opacity:1;fill-rule:nonzero;stroke:none" id="path3033" />
        </g>
        <g id="g3035" transform="translate(570.7979,724.9734)">
          <path inkscape:connector-curvature="0" d="M 0,0 0.263,0 0.694,-1.299 1.129,0 1.393,0 1.393,-2.567 1.161,-2.567 1.161,-0.528 0.702,-1.883 0.686,-1.883 0.228,-0.528 0.228,-2.567 0,-2.567 0,0 z" style="fill:#4a463d;fill-opacity:1;fill-rule:nonzero;stroke:none" id="path3037" />
        </g>
        <g id="g3039" transform="translate(573.0176,724.9785)">
          <path inkscape:connector-curvature="0" d="M 0,0 0.161,0 -0.495,-2.596 -0.66,-2.596 0,0 z" style="fill:#4a463d;fill-opacity:1;fill-rule:nonzero;stroke:none" id="path3041" />
        </g>
        <g id="g3043" transform="translate(573.3231,724.9734)">
          <path inkscape:connector-curvature="0" d="M 0,0 0.265,0 0.696,-1.299 1.13,0 1.392,0 1.392,-2.567 1.165,-2.567 1.165,-0.528 0.702,-1.883 0.688,-1.883 0.228,-0.528 0.228,-2.567 0,-2.567 0,0 z" style="fill:#4a463d;fill-opacity:1;fill-rule:nonzero;stroke:none" id="path3045" />
        </g>
        <g id="g3047" transform="translate(575.021,723.6581)">
          <path inkscape:connector-curvature="0" d="M 0,0 0,0.074 C 0,0.938 0.328,1.321 0.705,1.321 0.823,1.321 0.885,1.313 0.972,1.297 L 0.972,1.027 C 0.878,1.082 0.807,1.108 0.721,1.108 0.457,1.108 0.241,0.779 0.241,0.074 L 0.241,0 C 0.241,-0.717 0.457,-1.034 0.721,-1.034 0.813,-1.034 0.885,-1.009 0.979,-0.954 L 0.979,-1.191 C 0.898,-1.239 0.813,-1.265 0.696,-1.265 0.305,-1.265 0,-0.861 0,0" style="fill:#4a463d;fill-opacity:1;fill-rule:nonzero;stroke:none" id="path3049" />
        </g>
        <g id="g3051" transform="translate(522.6036,728.5445)">
          <path inkscape:connector-curvature="0" d="M 0,0 C -3.481,0 -5.539,2.297 -5.539,5.564 L -5.539,12.742 -2.347,12.742 -2.347,5.466 C -2.347,4.763 -2.103,3.095 0,3.095 1.4,3.095 2.415,4.09 2.415,5.466 L 2.415,12.742 5.61,12.742 5.61,5.564 C 5.61,2.395 3.387,0 0,0" style="fill:#4a463d;fill-opacity:1;fill-rule:nonzero;stroke:none" id="path3053" />
        </g>
        <g id="g3055" transform="translate(536.6921,738.6035)">
          <path inkscape:connector-curvature="0" d="M 0,0 C -1.763,0 -3.19,-1.595 -3.19,-3.576 -3.19,-5.513 -1.763,-7.082 0,-7.082 1.766,-7.082 3.193,-5.562 3.193,-3.576 3.193,-1.523 1.766,0 0,0 M 0,-10.059 C -3.77,-10.059 -6.409,-7.155 -6.409,-3.555 L -6.409,8.246 -3.19,8.246 -3.19,1.5 C -2.249,2.491 -1.016,2.951 0.435,2.951 3.725,2.951 6.386,0.024 6.386,-3.555 6.386,-7.155 3.75,-10.059 0,-10.059" style="fill:#4a463d;fill-opacity:1;fill-rule:nonzero;stroke:none" id="path3057" />
        </g>
        <g id="g3059" transform="translate(562.7255,728.5445)">
          <path inkscape:connector-curvature="0" d="M 0,0 C -3.745,0 -6.43,2.904 -6.43,6.504 -6.43,10.108 -3.745,13.058 0,13.058 3,13.058 5.273,11.366 5.998,8.56 L 2.591,8.56 C 2.154,9.406 1.164,10.134 0,10.134 -1.764,10.134 -3.188,8.49 -3.188,6.483 -3.188,4.52 -1.764,2.904 0,2.904 1.186,2.904 2.203,3.629 2.612,4.497 L 6.022,4.497 C 5.299,1.67 3.025,0 0,0" style="fill:#4a463d;fill-opacity:1;fill-rule:nonzero;stroke:none" id="path3061" />
        </g>
        <g id="g3063" transform="translate(510.152,744.2627)">
          <path inkscape:connector-curvature="0" d="M 0,0 C -1.608,0 -2.931,-1.372 -2.931,-3.067 L -2.931,-6.112 0,-6.112 C 1.625,-6.112 2.951,-4.743 2.951,-3.067 2.951,-1.372 1.625,0 0,0 M 0.232,-8.924 -2.931,-8.924 -2.931,-15.419 -5.991,-15.419 -5.991,-2.997 C -5.991,0.256 -3.395,2.905 0,2.905 3.416,2.905 6.018,0.256 6.018,-2.997 6.018,-6.369 3.25,-8.924 0.232,-8.924" style="fill:#4a463d;fill-opacity:1;fill-rule:nonzero;stroke:none" id="path3065" />
        </g>
        <path inkscape:connector-curvature="0" d="M 544.953,728.84 548.168,728.84 548.168,746.85 544.953,746.85 544.953,728.84 z" style="fill:#4a463d;fill-opacity:1;fill-rule:nonzero;stroke:none" id="path3067" />
        <g id="g3069" transform="translate(550.509,744.6311)">
          <path inkscape:connector-curvature="0" d="M 0,0 C 0,1.226 0.994,2.219 2.22,2.219 3.445,2.219 4.438,1.226 4.438,0 4.438,-1.225 3.445,-2.219 2.22,-2.219 0.994,-2.219 0,-1.225 0,0" style="fill:#4a463d;fill-opacity:1;fill-rule:nonzero;stroke:none" id="path3071" />
        </g>
        <g id="g3073" transform="translate(554.8984,739.5507)">
          <path inkscape:connector-curvature="0" d="M 0,0 C 0,1.15 -0.978,2.052 -2.153,2.052 -2.158,2.052 -2.163,2.051 -2.17,2.051 -2.175,2.051 -2.179,2.052 -2.184,2.052 -3.362,2.052 -4.341,1.15 -4.341,0 -4.341,-1.885 -3.902,-5.385 -3.551,-7.877 L -3.268,-10.711 -1.073,-10.711 -0.785,-7.868 C -0.439,-5.378 0,-1.884 0,0" style="fill:#4a463d;fill-opacity:1;fill-rule:nonzero;stroke:none" id="path3075" />
        </g>
        <g id="g3077" transform="translate(530.5962,724.9713)">
          <path inkscape:connector-curvature="0" d="M 0,0 0.789,0 3.296,-3.762 5.809,0 6.598,0 6.598,-6.892 5.819,-6.892 5.819,-1.312 3.306,-5.006 3.269,-5.006 0.759,-1.322 0.759,-6.892 0,-6.892 0,0 z" style="fill:#4a463d;fill-opacity:1;fill-rule:nonzero;stroke:none" id="path3079" />
        </g>
        <g id="g3081" transform="translate(545.0634,721.5072)">
          <path inkscape:connector-curvature="0" d="M 0,0 0,0.015 C 0,1.582 -1.139,2.863 -2.715,2.863 -4.292,2.863 -5.414,1.6 -5.414,0.037 L -5.414,0.015 C -5.414,-1.549 -4.276,-2.83 -2.697,-2.83 -1.122,-2.83 0,-1.569 0,0 M -6.223,0 -6.223,0.015 C -6.223,1.917 -4.792,3.581 -2.697,3.581 -0.597,3.581 0.811,1.934 0.811,0.037 0.818,0.026 0.818,0.026 0.811,0.015 0.811,-1.882 -0.616,-3.555 -2.715,-3.555 -4.815,-3.555 -6.223,-1.907 -6.223,0" style="fill:#4a463d;fill-opacity:1;fill-rule:nonzero;stroke:none" id="path3083" />
        </g>
        <g id="g3085" transform="translate(550.6008,718.777)">
          <path inkscape:connector-curvature="0" d="M 0,0 C 1.042,0 1.695,0.464 1.695,1.23 L 1.695,1.251 C 1.695,1.998 1.064,2.432 -0.139,2.432 L -2.313,2.432 -2.313,0 0,0 z M -0.276,3.121 C 0.659,3.121 1.308,3.544 1.308,4.352 L 1.308,4.37 C 1.308,5.052 0.768,5.494 -0.218,5.494 L -2.313,5.494 -2.313,3.121 -0.276,3.121 z M -3.082,6.194 -0.148,6.194 C 0.641,6.194 1.26,5.967 1.655,5.584 1.939,5.289 2.101,4.923 2.101,4.483 L 2.101,4.464 C 2.101,3.566 1.548,3.102 1.004,2.863 1.822,2.619 2.479,2.147 2.479,1.201 L 2.479,1.181 C 2.479,0 1.49,-0.698 -0.018,-0.698 L -3.082,-0.698 -3.082,6.194 z" style="fill:#4a463d;fill-opacity:1;fill-rule:nonzero;stroke:none" id="path3087" />
        </g>
        <path inkscape:connector-curvature="0" d="M 554.701,724.971 555.478,724.971 555.478,718.079 554.701,718.079 554.701,724.971 z" style="fill:#4a463d;fill-opacity:1;fill-rule:nonzero;stroke:none" id="path3089" />
        <g id="g3091" transform="translate(557.4982,724.9713)">
          <path inkscape:connector-curvature="0" d="M 0,0 0.777,0 0.777,-6.174 4.656,-6.174 4.656,-6.892 0,-6.892 0,0 z" style="fill:#4a463d;fill-opacity:1;fill-rule:nonzero;stroke:none" id="path3093" />
        </g>
        <g id="g3095" transform="translate(563.5924,724.9713)">
          <path inkscape:connector-curvature="0" d="M 0,0 4.985,0 4.985,-0.71 0.781,-0.71 0.781,-3.063 4.543,-3.063 4.543,-3.774 0.781,-3.774 0.781,-6.185 5.035,-6.185 5.035,-6.892 0,-6.892 0,0 z" style="fill:#4a463d;fill-opacity:1;fill-rule:nonzero;stroke:none" id="path3097" />
        </g>
      </g>
    </g>
  </g>
</svg>
