<?xml version="1.0" encoding="utf-8"?>
<!-- Generator: Adobe Illustrator 26.0.3, SVG Export Plug-In . SVG Version: 6.00 Build 0)  -->
<svg version="1.0" id="Layer_1" xmlns="http://www.w3.org/2000/svg" xmlns:xlink="http://www.w3.org/1999/xlink" x="0px" y="0px"
	 viewBox="0 0 646.1 483.6" style="enable-background:new 0 0 646.1 483.6;" xml:space="preserve">
<style type="text/css">
	.st0{fill:#202944;}
</style>
<g>
	<path class="st0" d="M216.9,208.1c-0.4,2.2-0.6,3.6-1.1,5.4c-0.7,2.5-1.4,4.3-3.1,5.8c-2.2,2-4.6,2.3-7.6,2.2
		c-10.7-0.2-21.2,0-31.9,0c-0.8,0-1.6,0.3-1.9,1.7l-2.5,11.8h31.9c-0.7,3.4-1.2,6.2-1.9,9.5l-4.3,3.5h-28.5c-0.8,3.9-1.9,9.1-2.8,13
		c-0.1,0.3-0.1,0.6-0.1,1h42.4c-0.7,3.4-1.4,6.7-2.1,10l-4.3,3.5h-54.3c4.8-22.5,9.5-45,14.3-67.5L216.9,208.1z"/>
	<path class="st0" d="M471.9,253.4L471.9,253.4l0.3,1.7C472.1,254.5,472,253.9,471.9,253.4 M470.3,245.1L470.3,245.1l0.1,0.6
		L470.3,245.1 M471.9,253.4L471.9,253.4l0.3,1.7C472.1,254.5,472,253.9,471.9,253.4 M470.3,245.1L470.3,245.1l0.1,0.6L470.3,245.1"
		/>
	<path class="st0" d="M149.4,208.1c-0.4,2.2-0.7,3.6-1.1,5.4c-0.7,2.5-1.4,4.3-3.1,5.8c-2.2,2-4.6,2.3-7.6,2.2
		c-4.9-0.1-9.8-0.1-14.7-0.1c-1,0-1.8,0.8-1.9,1.8l-10.4,49.2l-3.7,3H94.6c3.8-18,7.6-35.9,11.5-54H81l2.8-13.4L149.4,208.1z"/>
	<path class="st0" d="M233,261.6h41.5c-0.7,3.5-1.4,6.9-2.1,10.3l-4.4,3.6h-53.3c0.6-2.6,1.1-5.1,1.6-7.7
		c4.1-19.3,8.5-40.5,12.6-59.8h15.4C240.6,225.9,236.8,243.7,233,261.6"/>
	<path class="st0" d="M470.2,245.1l-23.9,7.7l19.4-30.8c0.1,0.3,0.1,0.6,0.2,0.9l0.2,1.1c0.1,0.4,0.2,0.8,0.2,1.2l0.3,1.7
		c0,0.1,0,0.2,0.1,0.4l0.2,1.5c0.1,0.8,0.3,1.6,0.5,2.5l0.2,0.9c0.1,0.6,0.2,1.2,0.4,1.8l1.1,5.7c0.1,0.3,0.1,0.7,0.2,1l0.4,2.2
		C469.9,243.5,470.1,244.3,470.2,245.1L470.2,245.1l0.1,0.6L470.2,245.1z M502.6,234.5l-17.4,5.7c-1.5-6.6-2.9-13.1-4.4-19.6
		c-0.9-4.2-1.9-8.3-2.9-12.6h-1.2c-5.9,0-11.9,0-17.8,0c-0.9,0-1.3,0-1.3,0c-12.1,18.7-24.8,38.6-37,57.2l-3.3,10.3h0.4
		c4.8,0,9.6,0,14.4,0l39.7-22.2l0,0c0.1,0.5,0.2,1.1,0.3,1.7c0.1,0.3,0.1,0.7,0.2,1l0.6,3c0.1,0.7,0.2,1.3,0.4,1.9l0.4,1.9
		c0.1,0.6,0.2,1.2,0.4,1.8l0.3,1.7c0,0.3,0.1,0.6,0.2,0.8l0.3,1.6c0,0.2,0.1,0.5,0.1,0.8l0.3,1.4l0.3,1.3c0.1,0.4,0.1,0.7,0.2,1
		l0.1,0.8c0.1,0.5,0.2,1,0.3,1.4h13.5c0.5-2.4,1.1-5.4,1.6-7.7c-1.7-7.4-3.3-14.9-5-22.5l16.9-9.4c0.4-0.2,0.5-0.7,0.3-1
		C503.3,234.6,502.9,234.5,502.6,234.5"/>
	<path class="st0" d="M470.4,245.7l-0.1-0.6l0,0L470.4,245.7"/>
	<path class="st0" d="M352.9,208.1c-0.4,2.2-0.7,3.6-1.1,5.4c-0.7,2.5-1.4,4.3-3.1,5.8c-2.2,2-4.6,2.3-7.6,2.2
		c-10.7-0.2-21.2,0-31.9,0c-1.1,0-1.6,0.5-1.9,1.7c-0.8,4.1-1.6,7.5-2.5,11.8h31.8c-0.7,3.4-1.2,6.2-1.9,9.5l-4.3,3.5H302
		c0,0.2-0.1,0.4-0.1,0.4c-0.9,4.5-1.9,9-2.9,13.6h42.5c-0.7,3.3-1.4,6.6-2,9.8c-1.7,1.4-2.8,2.3-4.5,3.6h-54.2
		c0.4-2,0.8-3.9,1.2-5.8c4.1-19.3,8.1-38.6,12.2-57.9c0.2-0.9,0.2-1.2,0.8-3.9h1.4c15.7,0,31.3,0,46.9,0L352.9,208.1z"/>
	<polygon class="st0" points="296.4,208.1 343.3,208.1 352.9,208.1 352.9,208.1 	"/>
	<path class="st0" d="M423.8,208c-0.4,2.2-0.7,3.6-1.1,5.4c-0.7,2.5-1.4,4.3-3.1,5.8c-2.2,2-4.6,2.3-7.6,2.2
		c-10.7-0.2-19.2,0-29.9,0c-1.5-0.1-3,0-4.5,0.2c-1.1,0.3-2,1.1-2.3,2.2c-0.6,2-1,4-1.3,6c-0.1,0.9,0.4,1.8,1.3,2.1
		c2,0.7,4,1.2,6,1.6c7,1.2,14,2.4,21,3.6c0.8,0.1,1.6,0.3,2.4,0.5c8.5,2.4,12.5,7.4,11.3,15.2c-0.5,3.8-1.4,7.5-2.6,11.1
		c-2.5,7.7-7.5,11.2-15.9,11.5c-1.6,0-3.2,0-4.7,0h-44.2c0.9-4.4,1.8-8.7,2.7-13l0.1-0.6h1.4c13.1,0,26.2,0,39.4,0
		c1.3,0,2.5-0.1,3.8-0.3c0.7-0.1,1.3-0.4,1.9-0.8c1.7-1.2,3-6.1,2.1-8c-0.4-0.8-1.1-1.3-1.9-1.6c-2-0.6-4-1.1-6.1-1.5
		c-7.2-1.3-14.4-2.4-21.6-3.8c-2.1-0.4-4.1-1.2-6-2.2c-4.4-2.2-6.9-6.9-6.3-11.8c0.6-4.5,1.6-8.9,3-13.1c2.4-7.1,7.6-10.6,15.2-10.9
		c3.9-0.1,7.8-0.1,11.6-0.1L423.8,208z"/>
	<polygon class="st0" points="423.8,208 423.8,208 423.8,208 	"/>
	<path class="st0" d="M565,208.1c-0.4,2.2-0.6,3.6-1.1,5.4c-0.7,2.5-1.4,4.3-3.1,5.8c-2.2,2-4.6,2.3-7.6,2.2c-1.8,0-4.1,0.2-15,0.1
		c-0.8,0-1.3,0.7-1.5,1.6l-10.5,49.6l-3.2,2.6h-12.7c3.8-18,7.6-35.9,11.5-54h-25.1c1-4.6,1.9-9,2.8-13.4L565,208.1z"/>
	<polygon class="st0" points="543.8,268.3 541.3,268.3 541.3,274.7 539.3,274.7 539.3,268.3 536.8,268.3 536.8,266.8 543.8,266.8 	
		"/>
	<polygon class="st0" points="553.3,274.7 551.3,274.7 551.3,269.4 549.8,272.8 548.4,272.8 547,269.4 547,274.7 545,274.7 
		545,266.8 547.4,266.8 549.2,270.8 550.9,266.8 553.3,266.8 	"/>
</g>
</svg>
